<svg id="Capa_1" enable-background="new 0 0 512 512" height="512" viewBox="0 0 512 512" width="512" xmlns="http://www.w3.org/2000/svg"><path d="m492.432 214.65c-19.335-13.253-44.759-9.217-59.318 7.396v-147.046c0-31.649-32.054-53.576-61.591-41.819-5.206-19.096-22.693-33.181-43.418-33.181-15.916 0-29.917 8.311-37.921 20.813-29.807-16.862-67.088 4.755-67.088 39.187v2.58c-29.253-10.374-60.005 11.457-60.005 42.42v37.116c-10.973 5.746-19.292 15.882-22.613 28.065-29.553-11.763-61.591 10.194-61.591 41.819v117.045c-14.569-16.623-39.995-20.641-59.319-7.395-20.471 14.032-25.731 42.116-11.722 62.603 45.719 66.862 42.396 62.421 44.691 64.316l56.352 46.5v1.931c0 8.284 6.716 15 15.001 15s15.001-6.716 15.001-15v-9c0-4.477-2-8.72-5.453-11.569l-60.168-49.649-40.658-59.461c-4.683-6.848-2.925-16.235 3.917-20.926 6.875-4.712 16.252-2.956 20.956 3.926l24.016 35.142c3.711 5.432 10.534 7.811 16.815 5.868 6.286-1.942 10.572-7.753 10.572-14.331v-165c0-8.271 6.729-15 15.001-15 7.81 0 15.001 6.088 15.001 15.5v89.5c0 8.284 6.716 15 15.001 15s15.001-6.716 15.001-15c0-15.155 0-108.812 0-120 0-8.271 6.729-15 15.001-15s15.001 6.729 15.001 15v120c0 8.284 6.716 15 15.001 15s15.001-6.716 15.001-15c0-9.907 0-94.37 0-105 0-8.271 6.729-15 15.001-15s15.001 6.729 15.001 15v105c0 8.284 6.716 15 15.001 15s15.001-6.716 15.001-15c0-9.956 0-39.521 0-50 0-8.271 6.729-15 15.001-15s15.001 6.729 15.001 15v142.574c0 23.353-9.095 45.307-25.609 61.819-2.814 2.813-4.394 6.628-4.394 10.607v30c0 8.284 6.716 15 15.001 15s15.001-6.716 15.001-15v-24.026c19.395-21.572 30.002-49.17 30.002-78.4v-142.574c0-21.662-15.387-39.794-35.806-44.052 0-15.206 0-159.602 0-162.948 0-8.271 6.729-15 15.001-15s15.001 6.729 15.001 15v137c0 8.284 6.716 15 15.001 15s15.001-6.716 15.001-15v-106.5c0-9.478 7.262-15.5 15.001-15.5 8.271 0 15.001 6.729 15.001 15v195c0 6.578 4.286 12.389 10.572 14.331s13.104-.437 16.815-5.868l24.016-35.142c4.703-6.881 14.08-8.638 20.955-3.926 6.843 4.691 8.601 14.078 3.918 20.926l-40.789 59.654-54.385 47.754c-3.243 2.848-5.103 6.955-5.103 11.271v118c0 8.284 6.716 15 15.001 15s15.001-6.716 15.001-15v-111.209c55.235-48.5 51.674-45.112 53.187-47.324l41.856-61.213c14.016-20.488 8.757-48.571-11.715-62.604zm-299.338-76.702v-32.948c0-8.271 6.729-15 15.001-15s15.001 6.729 15.001 15v52.116c-.431.226-.857.458-1.28.697-6.418-10.026-16.692-17.356-28.722-19.865zm60.004 15c0-31.092 0-62.029 0-92.948 0-8.271 6.729-15 15.001-15s15.001 6.729 15.001 15v114.937c-6.279-11.112-17.137-19.307-30.002-21.989z"/><path d="m71.378 92.606c5.857 5.858 15.357 5.859 21.215 0 5.859-5.858 5.859-15.355 0-21.213l-21.002-21c-5.858-5.858-15.357-5.858-21.215 0-5.859 5.858-5.859 15.355 0 21.213z"/><path d="m130.26 49.623c2.145 8.002 10.37 12.751 18.374 10.606 8.003-2.144 12.751-10.369 10.607-18.371l-7.68-28.66c-2.145-8.003-10.367-12.75-18.374-10.606-8.003 2.144-12.751 10.369-10.607 18.371z"/><path d="m13.177 151.569 28.663 7.68c8.006 2.145 16.23-2.607 18.374-10.606 2.144-8.002-2.605-16.227-10.607-18.371l-28.663-7.68c-7.999-2.145-16.229 2.604-18.374 10.606-2.144 8.002 2.605 16.227 10.607 18.371z"/></svg>