<?xml version="1.0" encoding="iso-8859-1"?>
<!-- Generator: Adobe Illustrator 17.1.0, SVG Export Plug-In . SVG Version: 6.00 Build 0)  -->
<!DOCTYPE svg PUBLIC "-//W3C//DTD SVG 1.1//EN" "http://www.w3.org/Graphics/SVG/1.1/DTD/svg11.dtd">
<svg version="1.1" id="Capa_1" xmlns="http://www.w3.org/2000/svg" xmlns:xlink="http://www.w3.org/1999/xlink" x="0px" y="0px"
	 viewBox="0 0 198.084 198.084" style="enable-background:new 0 0 198.084 198.084;" xml:space="preserve">
<path d="M185.379,159.263L185.379,159.263l-3.452,16.918c-1.222,5.987-6.488,10.287-12.599,10.287H20.196
	c-8.135,0-14.225-7.458-12.599-15.429l14.342-70.291c1.001-4.904,4.577-8.725,9.141-10.196l0,0c0.325-0.105,0.656-0.198,0.99-0.279
	c0.017-0.004,0.034-0.007,0.051-0.011c0.314-0.075,0.631-0.14,0.952-0.193c0.101-0.016,0.203-0.026,0.305-0.04
	c0.247-0.035,0.495-0.07,0.746-0.091c0.368-0.03,0.739-0.049,1.114-0.049h5.842h117.735h10h16.563h6.236
	c1.79,0,3.383,0.718,4.54,1.861c1.157,1.143,1.879,2.712,1.926,4.414c0.013,0.486-0.028,0.983-0.13,1.484L185.379,159.263z
	 M185.315,79.889c-0.6-5.713-5.445-10.181-11.314-10.181h-5.186v10.181H185.315z M12.142,98.749
	c1.947-9.543,9.603-16.799,18.939-18.486V52.719H13.35C5.989,52.719,0,58.708,0,66.068v92.185L12.142,98.749z M158.815,17.23v62.659
	H41.081V17.23c0-3.095,2.519-5.614,5.614-5.614h106.507C156.297,11.616,158.815,14.134,158.815,17.23z M144.425,61.507
	c0-2.761-2.238-5-5-5H60.471c-2.761,0-5,2.239-5,5c0,2.761,2.239,5,5,5h78.954C142.187,66.507,144.425,64.268,144.425,61.507z
	 M144.425,35.69c0-2.761-2.238-5-5-5H60.471c-2.761,0-5,2.239-5,5s2.239,5,5,5h78.954C142.187,40.69,144.425,38.451,144.425,35.69z"
	/>
<g>
</g>
<g>
</g>
<g>
</g>
<g>
</g>
<g>
</g>
<g>
</g>
<g>
</g>
<g>
</g>
<g>
</g>
<g>
</g>
<g>
</g>
<g>
</g>
<g>
</g>
<g>
</g>
<g>
</g>
</svg>
